<?xml version="1.0" encoding="UTF-8" standalone="no"?>
<svg
   xmlns:dc="http://purl.org/dc/elements/1.1/"
   xmlns:cc="http://creativecommons.org/ns#"
   xmlns:rdf="http://www.w3.org/1999/02/22-rdf-syntax-ns#"
   xmlns:svg="http://www.w3.org/2000/svg"
   xmlns="http://www.w3.org/2000/svg"
   xmlns:sodipodi="http://sodipodi.sourceforge.net/DTD/sodipodi-0.dtd"
   xmlns:inkscape="http://www.inkscape.org/namespaces/inkscape"
   inkscape:version="1.0 (4035a4f, 2020-05-01)"
   sodipodi:docname="cog.svg"
   viewBox="0 0 512 512"
   version="1.1"
   id="svg4060">
  <sodipodi:namedview
     inkscape:document-rotation="0"
     inkscape:current-layer="svg4060"
     inkscape:window-maximized="0"
     inkscape:window-y="25"
     inkscape:window-x="962"
     inkscape:cy="256"
     inkscape:cx="-336.27119"
     inkscape:zoom="0.4609375"
     showgrid="false"
     id="namedview5711"
     inkscape:window-height="1046"
     inkscape:window-width="1691"
     inkscape:pageshadow="2"
     inkscape:pageopacity="0"
     guidetolerance="10"
     gridtolerance="10"
     objecttolerance="10"
     borderopacity="1"
     bordercolor="#666666"
     pagecolor="#ffffff" />
  <defs
     id="defs4054" />
  <metadata
     id="metadata4057">
    <rdf:RDF>
      <cc:Work
         rdf:about="">
        <dc:format>image/svg+xml</dc:format>
        <dc:type
           rdf:resource="http://purl.org/dc/dcmitype/StillImage" />
        <dc:title />
      </cc:Work>
    </rdf:RDF>
  </metadata>
  <path
     inkscape:connector-curvature="0"
     d="m 239.02894,256.23902 q 0,28.20542 -20.07843,48.28385 -20.07843,20.07844 -48.28384,20.07844 -28.20542,0 -48.28385,-20.07844 -20.07843,-20.07843 -20.07843,-48.28385 0,-28.20541 20.07843,-48.28385 20.07843,-20.07843 48.28385,-20.07843 28.20541,0 48.28384,20.07843 20.07843,20.07844 20.07843,48.28385 z M 444.11578,119.51447 q 0,13.86367 -10.51727,24.38095 -10.51728,10.51727 -23.9029,10.03921 -13.38562,-0.47805 -23.90289,-10.03921 -10.51728,-9.56116 -10.03922,-24.38095 0,-13.86368 10.03922,-23.902894 10.03921,-10.039216 23.90289,-10.039216 13.86368,0 24.38095,10.039216 10.51728,10.039214 10.03922,23.902894 z m 0,273.44911 q 0,13.86368 -10.51727,23.90289 -10.51728,10.03922 -23.9029,10.03922 -13.38562,0 -23.90289,-10.03922 -10.51728,-10.03921 -10.03922,-23.90289 0,-14.34174 10.03922,-24.38095 10.03921,-10.03922 23.90289,-10.03922 13.86368,0 24.38095,10.03922 10.51728,10.03921 10.03922,24.38095 z M 341.33333,280.61997 v -49.23996 q 0,-2.86835 -1.91223,-5.25864 -1.91223,-2.39028 -3.82446,-2.86834 l -41.59104,-6.69281 q -2.86835,-9.0831 -8.60504,-20.07843 9.0831,-12.90757 23.90289,-30.59571 1.91224,-2.86835 1.91224,-5.25864 0,-3.3464 -1.91224,-5.25863 -5.73669,-8.12699 -21.99066,-23.9029 -16.25397,-15.7759 -20.55649,-15.7759 -3.3464,0 -5.73669,1.91223 l -30.59571,23.90289 q -10.03921,-5.25864 -20.55649,-8.12699 -2.86834,-28.68346 -6.21475,-41.591027 -1.91223,-6.214753 -8.12698,-6.214753 h -49.71802 q -2.86835,0 -5.25864,1.912232 -2.39029,1.912231 -2.39029,4.780579 l -6.21475,40.634919 q -9.0831,2.86834 -20.07843,8.60504 L 80.313725,117.60224 q -1.912231,-1.91223 -5.258636,-1.91223 -2.868348,0 -5.736695,1.91223 -38.244631,35.85434 -38.244631,43.0252 0,2.39029 1.912231,4.78058 2.39029,3.82447 10.995332,14.34174 8.605042,10.51727 12.429505,16.25397 -6.214753,11.47339 -9.561158,21.99066 L 6.2147526,224.20914 Q 3.8244631,224.6872 1.9122316,226.59943 0,228.51166 0,231.85807 v 49.71802 q 0,2.39029 1.9122316,4.78058 1.9122315,2.39029 4.302521,2.86836 l 41.1129784,6.69281 q 3.346405,9.0831 8.605042,20.07843 -9.0831,12.90756 -23.902894,30.5957 -1.912232,2.86835 -1.912232,5.25864 0,3.3464 1.912232,5.73669 5.736694,7.64893 21.990663,23.42484 16.253968,15.77591 21.034547,15.77591 2.868347,0 5.736694,-1.91223 l 30.595707,-23.90289 q 9.0831,4.78057 20.55649,8.60504 2.86834,28.68347 6.21475,41.11298 1.43417,6.21475 7.64893,6.21475 h 49.71802 q 2.86834,0 5.25863,-1.91223 2.39029,-1.91224 2.86835,-4.78058 l 6.21475,-40.63493 q 9.0831,-2.86835 20.07844,-8.12698 l 31.07376,23.42484 q 2.39029,1.91223 5.73669,1.91223 2.86835,0 5.25864,-1.91223 38.72269,-35.85434 38.72269,-43.02521 0,-1.91224 -1.91223,-4.78058 -3.34641,-4.30252 -11.47339,-14.34174 -8.12699,-10.03922 -11.95145,-16.25396 6.21475,-12.90758 9.0831,-21.99068 l 40.63492,-5.73669 q 2.86835,-0.95612 4.30252,-2.86835 1.43418,-1.91223 1.91223,-5.25864 z M 512,138.15872 v -37.28851 q 0,-4.302518 -39.6788,-8.126982 -2.86835,-7.170868 -7.64893,-13.863678 13.38562,-30.117647 13.38562,-36.810458 0,-0.956116 -0.95612,-1.912231 -32.50793,-19.122316 -32.98599,-19.122316 -2.39029,0 -12.42951,12.907563 -10.03921,12.907563 -13.86367,17.688142 -5.25864,-0.478058 -8.12699,-0.478058 -2.86835,0 -8.12698,0.478058 -3.34641,-5.258637 -13.86368,-17.688142 -10.51727,-12.429505 -11.95145,-12.907563 -0.47806,0 -32.98599,19.122316 -1.43418,0.956115 -1.43418,1.912231 0,6.692811 13.86368,36.810458 -4.78058,6.69281 -8.12698,13.863678 -39.67881,3.824464 -39.67881,8.126982 v 37.28851 q 0,4.30252 39.67881,8.60505 3.3464,7.64892 8.12698,13.86367 -13.86368,30.11765 -13.86368,36.81046 0,0.95612 1.43418,1.91223 0.95611,0.47806 9.0831,5.25864 8.12698,4.78058 15.77591,9.0831 7.64892,4.30252 8.12698,4.30252 1.91223,0 11.95145,-12.4295 10.03921,-12.42951 13.86368,-18.1662 5.73669,0.47805 8.12698,0.47805 2.39029,0 8.12699,-0.47805 13.38562,19.12231 24.38095,30.11764 l 1.91223,0.47806 q 0.95612,0 32.98599,-18.64426 0.95612,-0.95611 0.95612,-1.91223 0,-6.69281 -13.38562,-36.81046 4.30252,-6.21475 7.64893,-13.86367 Q 512,142.46124 512,138.15872 Z m 0,273.44912 v -37.28852 q 0,-4.30252 -39.6788,-8.60503 -2.86835,-7.17087 -7.64893,-13.86368 13.38562,-30.11766 13.38562,-36.81046 0,-0.95611 -0.95612,-1.91223 -32.50793,-18.64426 -32.98599,-18.64426 -2.39029,0 -12.42951,12.42951 -10.03921,12.4295 -13.86367,18.1662 -5.25864,-0.47806 -8.12699,-0.47806 -2.86835,0 -8.12698,0.47806 -3.34641,-5.7367 -13.86368,-18.1662 -10.51727,-12.42951 -11.95145,-12.42951 -0.47806,0 -32.98599,18.64426 -1.43418,0.95612 -1.43418,1.91223 0,6.69281 13.86368,36.81046 -4.78058,6.69281 -8.12698,13.86368 -39.67881,4.30252 -39.67881,8.60503 v 37.28852 q 0,4.30253 39.67881,8.12698 3.3464,7.64893 8.12698,13.86368 -13.86368,30.11766 -13.86368,36.81046 0,0.95611 1.43418,1.91223 0.95611,0.47807 9.0831,5.25863 8.12698,4.78058 15.77591,9.0831 7.64892,4.30253 8.12698,4.30253 1.91223,0 11.95145,-12.42951 10.03921,-12.4295 13.86368,-17.68814 5.73669,0.47807 8.12698,0.47807 2.39029,0 8.12699,-0.47807 13.38562,18.64426 24.38095,29.63959 l 1.91223,0.47807 q 0.95612,0 32.98599,-18.64426 0.95612,-0.95612 0.95612,-1.91223 0,-6.69281 -13.38562,-36.81046 4.30252,-6.21475 7.64893,-13.86368 Q 512,415.91036 512,411.60784 Z"
     horiz-adv-x="714.3"
     id="path4022"
     style="stroke-width:0.271962" />
</svg>
