<?xml version="1.0" encoding="UTF-8" standalone="no"?>
<svg
   xmlns:dc="http://purl.org/dc/elements/1.1/"
   xmlns:cc="http://creativecommons.org/ns#"
   xmlns:rdf="http://www.w3.org/1999/02/22-rdf-syntax-ns#"
   xmlns:svg="http://www.w3.org/2000/svg"
   xmlns="http://www.w3.org/2000/svg"
   id="svg4060"
   version="1.1"
   viewBox="0 0 512 512">
  <defs
     id="defs4054" />
  <metadata
     id="metadata4057">
    <rdf:RDF>
      <cc:Work
         rdf:about="">
        <dc:format>image/svg+xml</dc:format>
        <dc:type
           rdf:resource="http://purl.org/dc/dcmitype/StillImage" />
        <dc:title></dc:title>
      </cc:Work>
    </rdf:RDF>
  </metadata>
  <path
     id="path5893"
     d="m 505.41018,241.68233 q 13.17964,-49.82551 0,-99.0783 Q 492.23055,93.35123 455.5568,56.69799 428.05148,28.63535 392.52378,14.31767 356.99608,0 319.17627,0 q -37.24678,0 -72.77448,14.31767 -35.5277,14.31768 -63.03302,42.38032 -29.79742,29.78076 -44.12311,68.15212 -14.32568,38.37137 -12.03357,78.46085 2.29211,40.08949 20.62898,75.59732 -16.04476,4.58165 -28.07834,16.6085 l -99.70677,99.0783 Q 0,414.63982 0,443.27517 0,471.91051 20.05596,491.95526 40.11192,512 68.76329,512 q 28.65137,0 48.70733,-20.04474 l 99.13374,-99.65101 q 12.60661,-11.45414 17.19083,-28.06264 40.11192,20.04474 85.38108,20.04474 37.81981,0 73.34751,-14.31767 35.5277,-14.31767 63.03302,-41.80761 36.67375,-36.65324 49.85338,-86.47874 z m -57.87577,-49.2528 q 0,53.26175 -37.24678,90.4877 -37.81981,37.22595 -91.11136,37.22595 -52.71852,0 -89.9653,-37.22595 -37.24678,-37.22595 -37.81981,-90.4877 -0.57303,-53.26174 37.81981,-90.4877 37.81981,-37.79865 89.9653,-37.79865 52.71853,0 91.11136,37.79865 37.24678,37.22596 37.24678,90.4877 z"
     style="fill:currentColor;stroke-width:0.442395" />
</svg>
