<?xml version="1.0" encoding="UTF-8" standalone="no"?>
<svg
   xmlns:dc="http://purl.org/dc/elements/1.1/"
   xmlns:cc="http://creativecommons.org/ns#"
   xmlns:rdf="http://www.w3.org/1999/02/22-rdf-syntax-ns#"
   xmlns:svg="http://www.w3.org/2000/svg"
   xmlns="http://www.w3.org/2000/svg"
   id="svg4060"
   version="1.1"
   viewBox="0 0 512 512">
  <defs
     id="defs4054" />
  <metadata
     id="metadata4057">
    <rdf:RDF>
      <cc:Work
         rdf:about="">
        <dc:format>image/svg+xml</dc:format>
        <dc:type
           rdf:resource="http://purl.org/dc/dcmitype/StillImage" />
        <dc:title></dc:title>
      </cc:Work>
    </rdf:RDF>
  </metadata>
  <path
     id="path5893"
     d="m 64,464.00009 a 48,48 0 0 0 48,48 h 288 a 48,48 0 0 0 48,-48 v -336 H 64 Z m 272,-256 a 16,16 0 0 1 32,0 v 224 a 16,16 0 0 1 -32,0 z m -96,0 a 16,16 0 0 1 32,0 v 224 a 16,16 0 0 1 -32,0 z m -96,0 a 16,16 0 0 1 32,0 v 224 a 16,16 0 0 1 -32,0 z M 464,32.000088 H 344 l -9.4,-18.7 A 24,24 0 0 0 313.1,8.7631707e-5 H 198.8 A 23.72,23.72 0 0 0 177.4,13.300088 l -9.4,18.7 H 48 a 16,16 0 0 0 -16,16 v 32 a 16,16 0 0 0 16,16 h 416 a 16,16 0 0 0 16,-16 v -32 a 16,16 0 0 0 -16,-16 z"
     style="fill:currentColor" />
</svg>
